# xmcd
#
# Track frame offsets:
#	150
#	17833
#	38296
#	54893
#	72869
#	92197
#	110439
#	130798
#	146705
#	164652
#	182139
#	196392
#
# Disc length: 2787 seconds
#
# Revision: 0
# Processed by: cddbd v1.5.1PL0 Copyright (c) Steve Scherf et al.
# Submitted via: dBpowerAMP V4.0
#
DISCID=a20ae10c
DTITLE=SIMPLY RED - BLUE
DYEAR=1900
DGENRE=POP
TTITLE0=Mellow My Mind
TTITLE1=Blue
TTITLE2=Say You Love Me
TTITLE3=To Be Free
TTITLE4=The Air That I Breathe
TTITLE5=Someday In My Life
TTITLE6=The Air That I Breathe - Reprise
TTITLE7=Broken Man
TTITLE8=Come Get Me Angel
TTITLE9=Night Nurse
TTITLE10=Love Has Said Goodbye Again
TTITLE11=High Fives
EXTD=
EXTT0=
EXTT1=
EXTT2=
EXTT3=
EXTT4=
EXTT5=
EXTT6=
EXTT7=
EXTT8=
EXTT9=
EXTT10=
EXTT11=
PLAYORDER=
